<svg xmlns="http://www.w3.org/2000/svg" width="368" height="368" xmlns:v="https://vecta.io/nano"><rect width="368" height="368" rx="10" fill="#1c1c1c"/><g transform="matrix(.7071067811865476 .7071067811865475 -.7071067811865475 .7071067811865476 501.963 -2070.02)" fill="#fff"><path d="M1424 1764v89c-.02862394 26.91869543-19.51013743 49.87309975-46.066 54.278-2.734.461-5.805-9.278-8.934-9.278-3.038 0-6.018 9.754-9.2 9.233-26.46341034-4.4651625-45.82821663-27.39554545-45.8-54.233v-89s17.356 22 54.357 22 55.643-22 55.643-22zm-16.5-3c0-21.26296287-17.23703713-38.5-38.5-38.5s-38.5 17.23703713-38.5 38.5c0 0 7.665 13.06 38.5 13.06s38.5-13.06 38.5-13.06z"/><rect width="34" height="82" rx="17" transform="matrix(.7071067811865476 -.7071067811865475 .7071067811865475 .7071067811865476 1280.59 1778.234)"/><rect width="34" height="82" rx="17" transform="matrix(1e-16 -1 1 1e-16 1374 1845)"/><rect width="34" height="82" rx="17" transform="matrix(1e-16 -1 1 1e-16 1282 1845)"/><rect width="34" height="85.839" rx="17" transform="matrix(-.7071067811865475 -.7071067811865476 .7071067811865476 -.7071067811865475 1396.712 1838.931)"/><rect width="34" height="69" rx="17" transform="matrix(.7071067811865476 .7071067811865475 -.7071067811865475 .7071067811865476 1329.381 1842)"/><rect width="34" height="69" rx="17" transform="matrix(-.7071067811865475 .7071067811865476 -.7071067811865476 -.7071067811865475 1457.41 1890.791)"/></g></svg>