<svg xmlns="http://www.w3.org/2000/svg" width="1920" height="107" viewBox="0 0 1920 107">
  <defs>
    <style>
      .cls-1 {
        fill: #ef476f;
        mix-blend-mode: screen;
        isolation: isolate;
      }
    </style>
  </defs>
  <g id="Sidegraphic2" transform="translate(0 -1337)">
    <path id="Path_102" data-name="Path 102" class="cls-1" d="M1920,300V407H0l189.7-40.213s267.972,41.244,459.164,26.378,305.606-85.844,305.606-85.844,184.751,49.789,326.231,58.2,239.687-24.564,239.687-24.564,110.211,34.8,210.114,24.564S1920,300,1920,300Z" transform="translate(0 1037)"/>
    <path id="Path_115" data-name="Path 115" class="cls-1" d="M1920,407H1574.266a51.077,51.077,0,0,0-11.486-34.833c-13.469-16.512-42.391-31.213-42.391-31.213s110.211,34.8,210.114,24.564c0,0-19.636,13.447,27.738,23.818S1920,407,1920,407Z" transform="translate(0 1037)"/>
    <path id="Path_116" data-name="Path 116" class="cls-1" d="M954.471,307.321s184.751,49.789,326.231,58.2c34.43,2.046-10.759,12.127,0,22.5S1323.736,407,1323.736,407H942.852s55.7-22.6,58.609-47.516S954.471,307.321,954.471,307.321Z" transform="translate(0 1037)"/>
    <path id="Path_117" data-name="Path 117" class="cls-1" d="M189.7,366.787s79.88,12.295,183.612,21.047c38.817,3.275,81.082,6.058,123.724,7.5,21.9.741-7.941,6.638-55.56,10.16-18,1.331-55.053.336-68.725,1.5,0,0-75.824-2.055-149.087-12.109S189.7,366.787,189.7,366.787Z" transform="translate(0 1037)"/>
  </g>
</svg>
